<svg width="20" height="20" viewBox="0 0 20 20" fill="none" xmlns="http://www.w3.org/2000/svg">
<path d="M8.58575 7.17157C8.19523 6.78105 7.56206 6.78105 7.17154 7.17157C6.78101 7.5621 6.78101 8.19526 7.17154 8.58579L8.58575 10L7.17154 11.4142C6.78101 11.8047 6.78101 12.4379 7.17154 12.8284C7.56206 13.219 8.19523 13.219 8.58575 12.8284L9.99997 11.4142L11.4142 12.8284C11.8047 13.219 12.4379 13.219 12.8284 12.8284C13.2189 12.4379 13.2189 11.8047 12.8284 11.4142L11.4142 10L12.8284 8.58579C13.2189 8.19526 13.2189 7.5621 12.8284 7.17157C12.4379 6.78105 11.8047 6.78105 11.4142 7.17157L9.99997 8.58579L8.58575 7.17157Z" fill="#E3605F"/>
<path fill-rule="evenodd" clip-rule="evenodd" d="M10 0C4.47715 0 0 4.47715 0 10C0 15.5228 4.47715 20 10 20C15.5228 20 20 15.5228 20 10C20 4.47715 15.5228 0 10 0ZM2 10C2 5.58172 5.58172 2 10 2C14.4183 2 18 5.58172 18 10C18 14.4183 14.4183 18 10 18C5.58172 18 2 14.4183 2 10Z" fill="#E3605F"/>
</svg>
