<svg width="27" height="27" viewBox="0 0 27 27" fill="none" xmlns="http://www.w3.org/2000/svg">
<mask id="mask0_34_4414" style="mask-type:alpha" maskUnits="userSpaceOnUse" x="4" y="3" width="20" height="21">
<path fill-rule="evenodd" clip-rule="evenodd" d="M7.8955 7.68627C10.0058 5.57598 13.4273 5.57598 15.5375 7.68627C17.6336 9.78236 17.6477 13.172 15.5799 15.2855C15.5511 15.3087 15.5232 15.3335 15.4963 15.36C15.4706 15.3854 15.4464 15.4117 15.4238 15.4389C13.306 17.4379 9.96827 17.4011 7.8955 15.3283C5.78521 13.218 5.78521 9.79656 7.8955 7.68627ZM16.1981 17.6192C13.233 19.799 9.04036 19.5478 6.35817 16.8656C3.39884 13.9063 3.39884 9.10828 6.35817 6.14894C9.31751 3.18961 14.1155 3.18961 17.0749 6.14894C19.7893 8.8634 20.0139 13.1248 17.7487 16.0953L23.3929 21.8167C23.8145 22.244 23.8098 22.9323 23.3824 23.3539C22.955 23.7756 22.2668 23.7709 21.8451 23.3435L16.1981 17.6192Z" fill="black"/>
</mask>
<g mask="url(#mask0_34_4414)">
<rect x="0.876953" y="0.849854" width="26.0893" height="26.0893" fill="#373737"/>
</g>
</svg>
